<svg width="49" height="32" viewBox="0 0 49 32" fill="none" xmlns="http://www.w3.org/2000/svg">
    <path fill-rule="evenodd" clip-rule="evenodd"
        d="M44.91.703h-.738V.578q0-.102.043-.158.039-.045.166-.046h.37V0h-.379q-.31 0-.474.16-.165.162-.164.517v.438h1.177V.7zM29.573.579h-.538v.537h.538zm11.186 6.675h-.538v.537h.538zm6.32-.847a.8.8 0 0 1-.32.272v.001a1.1 1.1 0 0 1-.486.094q-.215 0-.437-.06l.142-.517q.093.027.147.034.053.006.127.006a.6.6 0 0 0 .252-.044.35.35 0 0 0 .154-.14.7.7 0 0 0 .081-.256 3 3 0 0 0 .023-.386V1.653h.538v3.758q0 .314-.05.567-.05.25-.17.429m-7.933.847h.538v.537h-.538zM30.649.58h-.538v.537h.538zm12.546 4.614a2.1 2.1 0 0 1-.709-.322h.002a1.56 1.56 0 0 1-.484-.557 1.7 1.7 0 0 1-.179-.815 1.69 1.69 0 0 1 .615-1.32q.293-.243.703-.385.41-.14.908-.141h.86v3.743q0 .63-.355 1.003-.358.372-1.143.372-.242 0-.48-.056a5 5 0 0 1-.55-.17l.169-.517q.255.114.453.16.2.048.447.048.437 0 .68-.181.24-.182.241-.604v-.533l-.18.379h-.143q-.452 0-.855-.104m-.38-2.637a1.3 1.3 0 0 0-.329.412h.002a1.1 1.1 0 0 0-.125.53q0 .302.114.538.114.233.316.395t.468.246.568.084h.544v-2.41l.307-.152h-.87a1.6 1.6 0 0 0-.995.357M29.182 6.698H30.3v-.402l.033.055q.122.178.32.273.198.094.487.094h9.806V1.652h-.538v4.529H31.16a.6.6 0 0 1-.252-.044.33.33 0 0 1-.154-.141.8.8 0 0 1-.08-.256 3 3 0 0 1-.024-.385V1.653h-1.454c-1.487 0-2.5 1.178-2.5 2.523v.014c0 1.345.999 2.508 2.486 2.508M27.27 4.162c0-1.109.796-2 1.912-2h1.26l-.33.164v3.03q0 .316.05.566.028.147.083.268h-1.05c-1.117 0-1.926-.907-1.926-2.014zm-3.03 1.822-.234-.619V1.648h.555v5.04h-.455L20.53 2.154l.316.735v3.799h-.555v-5.04h.535zm10.527 5.803-3.1 2.954c1.664.28 3.293 1.154 3.293 3.427v.035c0 2.308-1.681 4.005-4.415 4.005-2.208 0-3.732-.874-4.783-2.116l1.857-1.766c.842.945 1.718 1.47 2.96 1.47 1.017 0 1.735-.577 1.735-1.487v-.034c0-.997-.894-1.557-2.4-1.557h-1.122l-.421-1.713 3.934-3.95-1.576 1.012H26.48V9.76h8.287zm-20.56-7.62c0-1.39 1.046-2.606 2.582-2.606 1.537 0 2.569 1.203 2.569 2.593v.014c0 1.39-1.046 2.606-2.583 2.606s-2.569-1.202-2.569-2.592zm2.582 2.082c1.155 0 1.977-.923 1.977-2.067v-.014c0-1.144-.838-2.08-1.991-2.08s-1.977.921-1.977 2.066v.014c0 1.144.836 2.08 1.991 2.08m25.4 3.3c-3.783 0-6.534 2.85-6.534 6.329v.035c0 3.48 2.715 6.295 6.499 6.295s6.535-2.85 6.535-6.33v-.035c0-3.48-2.715-6.295-6.5-6.295m3.68 6.364c0 2.098-1.506 3.812-3.68 3.812-2.172 0-3.714-1.748-3.714-3.847v-.035c0-2.098 1.507-3.812 3.679-3.812s3.714 1.748 3.714 3.847zM12.654 1.648h.57v5.04h-.57zM3.497 20.6l.52-.401 2.68-2.065c2.172-1.679 3.224-2.692 3.224-4.739v-.034c0-2.292-1.681-3.778-4.222-3.778-2.19 0-3.363.892-4.572 2.536l1.892 1.52c.91-1.118 1.56-1.642 2.506-1.642s1.646.56 1.646 1.591-.596 1.679-2.119 2.938L.97 19.867V22h9.074v-2.327H5.368zM5.706 1.648 3.534 6.724h-.505L.857 1.648h.635l.31.75L3.29 5.989l.142.344-.055-.553 1.716-4.132zm1.345 0h-.57v5.04h.57zm1.646 1.268c0 .475.26.74 1.37.978v.003c1.126.245 1.645.655 1.645 1.426v.014c0 .864-.72 1.425-1.724 1.425-.8 0-1.456-.265-2.063-.806l.354-.418c.526.476 1.053.713 1.73.713.68 0 1.126-.36 1.126-.856V5.38c0-.468-.252-.734-1.313-.958-1.16-.253-1.695-.627-1.695-1.455v-.014c0-.793.7-1.376 1.66-1.376.735 0 1.262.208 1.774.62l-.33.439c-.47-.382-.94-.548-1.459-.548-.656 0-1.075.36-1.075.813z"
        fill="#fff" />
    <path
        d="m17.375 8.744.62.595-.596.62-.62-.596zm1.42.619.622.595.596-.619-.622-.595zm-.875.781.485.464.464-.483-.483-.462zm1.774.266.483.463.465-.482-.484-.464zm-2.564.473.484.464.463-.483-.483-.464zm1.623.057.483.462.465-.482-.484-.463zm-.635.554.34.326.327-.34-.34-.326zm1.284.256.34.326.326-.34-.34-.325zm3.857-2.777-1.055.193.193 1.054 1.055-.193zm-1.584.479-.847.155.155.845.846-.155zm1.635 1.18-.847.155.155.846.847-.156zm-1.354.158-.66.121.12.658.66-.12zm1.281 1.25-.66.121.121.658.66-.12zm-2.269-.982-.66.12.121.659.66-.121zm1.195.862-.66.12.122.659.659-.12zm-1.034.112-.464.085.085.463.463-.085zm.891.958-.465.086.085.462.464-.085zm3.322-.372-.461.967.97.46.46-.967zm-1.376-.447-.368.776.777.369.37-.776zm.637 1.911-.37.776.777.369.37-.776zm-1.018-.582-.288.604.605.288.288-.605zm.307 1.763-.288.603.605.288.288-.604zm-1.265-2.123-.288.605.605.287.288-.605zm.465 1.398-.288.604.605.288.288-.605zm-.729-.426-.201.425.425.202.203-.424zm.163 1.297-.202.424.425.202.202-.424zm3.339 1.84-.942.515.517.938.94-.515zm-.855-1.165-.753.412.413.754.755-.414zm-.603 1.92-.755.413.415.753.753-.412zm-.485-1.066-.588.32.323.588.587-.323zm-.784 1.608-.588.322.322.586.588-.321zm.218-2.46-.588.322.322.586.589-.321zm-.443 1.405-.587.323.323.585.586-.32zm-.34-.771-.414.228.228.412.413-.226zm-.628 1.146-.414.226.226.413.414-.226zm.565 3.313-.13 1.063 1.064.131.131-1.063zm.2-1.422-.107.853.854.106.106-.853zm-1.618 1.206-.105.853.854.106.105-.853zm.425-1.122-.082.665.665.082.082-.664zm-1.58.848-.082.664.665.082.082-.664zm1.616-1.872-.082.664.665.083.083-.664zm-1.182.882-.082.664.665.082.082-.664zm.373-.799-.058.467.468.058.058-.466zm-1.181.563-.057.466.467.058.058-.466zm-.228 3.8-.786-.73-.73.787.786.728zM19.19 8.264l-.786-.73-.73.785.786.73zm.983 13.823-.63-.584-.586.63.632.583zm-2.016.033-.63-.584-.586.63.63.584zm.86-.795-.49-.454-.456.489.49.455zm-1.776-.236-.49-.455-.457.49.491.456zm2.407-.568-.49-.456-.457.49.491.456zm-1.474.025-.492-.456-.456.49.492.455zm.624-.566-.346-.32-.32.344.346.32zm-1.288-.236-.345-.32-.32.346.346.32zm-2.97 1.579-1.05.21.21 1.051 1.051-.21zm1.413-.257-.843.169.168.843.844-.17zm-1.657-1.149-.844.169.17.843.843-.17zm1.206.043-.658.13.132.657.657-.132zm.982-.286-.658.132.132.656.657-.132zm-1.212-.84-.657.132.131.656.658-.132zm.878.101-.462.092.092.461.463-.093zm-.908-.939-.462.092.093.461.462-.092zm-3.684.979.444-.974-.976-.444-.446.975zm1.382.425.357-.782-.784-.356-.357.78zm-.668-1.901.357-.781-.784-.357-.357.782zm.696-.32-.278.609.61.278.278-.609zm1.148 2.407.278-.609-.61-.277-.278.609zm-1.485-4.167-.277.608.61.279.277-.61zm1.301 2.101-.278.61.61.277.278-.608zm-.488-1.39-.278.61.61.278.278-.609zm1.066 1.302.196-.429-.43-.195-.194.429zm-.182-1.293.195-.43-.429-.193-.196.428zm-3.37-1.786.932-.529-.532-.931-.932.53zm.873 1.153.748-.427-.427-.746-.747.426zm.572-1.932.749-.425-.428-.747-.748.426zm.503 1.059.582-.332-.333-.58-.582.33zm.758-1.622.582-.331-.333-.58-.582.33zm-.179 2.464.584-.332-.333-.582-.582.332zm.419-1.413.582-.332-.331-.58-.582.331zm.353.765.41-.233-.234-.409-.41.233zm.611-1.156.41-.232-.235-.41-.41.234zm-1.572-4.479-.114 1.065 1.066.114.114-1.065zm.011 1.654-.092.854.856.091.091-.854zm1.596-1.232-.092.854.856.092.091-.855zm-.234 1.34-.071.665.666.072.072-.666zm1.564-.873-.071.666.666.07.071-.665zm-1.588 1.894-.071.665.667.071.07-.665zm1.169-.901-.072.665.667.071.071-.665zm-.183 1.026-.05.468.469.05.05-.468zm1.171-.582-.05.468.469.05.05-.468zm5.013 4.932a2.2 2.2 0 0 0-.425-.184 2.5 2.5 0 0 0-1.17-.086q-.241.038-.506.13l-.05.019q-.134.05-.269.12-.115.057-.228.127a5 5 0 0 0-.51.35c-.19-1.142-.097-2.201-.053-2.722q.002-.003.006-.002c.405.254.292.964.206 1.169q0 .006.008.003a1.25 1.25 0 0 0 .154-1.418c-.003-.003.002-.007.006-.005q.108.09.183.187c.155.199.213.413.228.603a2 2 0 0 1-.005.333q.001.004.005.002h.003c.136-.267.201-.67-.003-1.062a1.3 1.3 0 0 0-.228-.313q-.044-.044-.092-.087-.003-.007.004-.007.046.012.088.026.128.045.228.12a.95.95 0 0 1 .319.43c.051.133.074.27.074.393 0 .005.007.005.008 0 .095-.349.037-.612-.082-.803a.94.94 0 0 0-.319-.308 1 1 0 0 0-.338-.126c-.005 0-.003-.008 0-.008q.057-.005.108-.006.127-.002.229.018c.135.025.24.072.319.126a.66.66 0 0 1 .214.228q.006.004.008-.002a.64.64 0 0 0-.221-.43.8.8 0 0 0-.319-.169 1 1 0 0 0-.228-.033.7.7 0 0 0-.286.051q-.006 0-.005-.007a.55.55 0 0 1 .29-.205.6.6 0 0 1 .23-.027q.106.007.187.044.006 0 .004-.007a.7.7 0 0 0-.192-.155.575.575 0 0 0-.78.2c0 .002-.005.002-.006-.001a1.9 1.9 0 0 1-.2-.572.004.004 0 0 0-.007 0 1.9 1.9 0 0 1-.201.57.004.004 0 0 1-.007 0c-.241-.365-.695-.358-.97-.042q-.003.006.003.007c.184-.088.532-.062.706.188q.004.007-.005.007a.84.84 0 0 0-.906.225.64.64 0 0 0-.148.355q.002.008.008.003a.6.6 0 0 1 .14-.172c.13-.114.355-.23.73-.195.004 0 .004.007 0 .007-.192.024-.586.194-.732.585-.064.172-.08.388-.009.652 0 .004.008.004.008 0v-.018c.004-.354.207-.83.709-.95q.007.002.004.006c-.561.493-.506 1.102-.322 1.462q.005.005.007-.003c-.024-.272-.044-.756.406-1.122.004-.003.01 0 .006.005-.104.167-.349.823.155 1.418.002.004.009 0 .007-.004-.084-.203-.197-.914.206-1.169q.005-.002.006.003c.044.52.136 1.58-.052 2.722-.325-.25-.668-.468-1.007-.596l-.124-.044a2.6 2.6 0 0 0-.951-.135 2.5 2.5 0 0 0-1.078.3c-.01.006-.003.02.008.016l.087-.026c.345-.097.673-.123.983-.096.337.03.655.122.951.256.416.187.793.454 1.133.737-.48.419-.886.826-1.133.968l-.036.02a.265.265 0 0 0-.472.095c-.02.086.002.18.051.228.131.131.283.14.457.067.333-.14.747-.58 1.254-1.044l.128-.117q.065.057.129.116c.23.21.44.416.633.59q.119.109.229.198.17.14.318.221c.194.103.362.116.506-.012l.023-.02a.3.3 0 0 0 .052-.229.26.26 0 0 0-.076-.13.263.263 0 0 0-.397.037 1 1 0 0 1-.11-.067 4 4 0 0 1-.318-.257q-.107-.095-.228-.206c-.157-.142-.33-.299-.512-.46q.243-.203.512-.386a5 5 0 0 1 .547-.316 3 3 0 0 1 .506-.194 2.7 2.7 0 0 1 1.17-.072q.204.032.418.098c.011.004.018-.012.009-.017"
        fill="#fff" />
    <path fill-rule="evenodd" clip-rule="evenodd"
        d="M16.832 27.44h-.504a1 1 0 0 1-.424-.077.57.57 0 0 1-.243-.23q.027-.12.027-.287v-.992h-.308v1.04a.6.6 0 0 1-.143.426q-.142.159-.431.159a.7.7 0 0 1-.247-.043.6.6 0 0 1-.192-.115.54.54 0 0 1-.178-.38v-1.087h-.308v1.064a.6.6 0 0 1-.042.24.44.44 0 0 1-.282.254.7.7 0 0 1-.196.028h-.596v-1.586h-.308v1.586H10.84l.538-1.287a3 3 0 0 0-.262-.201 2 2 0 0 0-.285-.166 1.7 1.7 0 0 0-.297-.112 1.14 1.14 0 0 0-.597 0 1.8 1.8 0 0 0-.583.275 3 3 0 0 0-.256.203l.542 1.287H8.575v-1.778h-.492q-.285 0-.52.081a1.3 1.3 0 0 0-.402.221.97.97 0 0 0-.352.755q0 .274.102.467.102.195.277.318.175.126.406.184.23.06.49.059h.184v.089q0 .242-.138.345-.14.105-.39.104a1.1 1.1 0 0 1-.515-.12l-.096.296q.177.066.313.098.137.033.275.033.45 0 .654-.213.204-.214.204-.574v-.058h4.783a.8.8 0 0 0 .68-.353q.113.185.306.288.191.104.458.104c.177 0 .342-.033.472-.097a.66.66 0 0 0 .298-.295 1 1 0 0 0 .093.128q.056.064.144.113a1 1 0 0 0 .213.081q.096.022.221.027v.004h.889V24.99h-.308v2.449zm-8.559 0h-.312a1 1 0 0 1-.325-.047.8.8 0 0 1-.267-.14.66.66 0 0 1-.246-.533.64.64 0 0 1 .07-.303.8.8 0 0 1 .189-.237.92.92 0 0 1 .58-.206h.311zm1.697 0-.48-1.179q.177-.15.363-.218a1.1 1.1 0 0 1 .803.013q.204.082.347.205l-.48 1.18H9.97m8.375-2.45h-.309v2.757h.308zm6.277.673v2.084h-3.486q-.255 0-.486-.061a1.2 1.2 0 0 1-.404-.188.94.94 0 0 1-.278-.322 1 1 0 0 1-.104-.47.96.96 0 0 1 .345-.747q.166-.138.401-.218t.524-.078h.485v1.777h1.224v-1.777h.308v1.777h1.162v-1.777zm-4.206 1.585q.114.094.266.143h.001q.153.05.325.05h.305v-1.47h-.305a1 1 0 0 0-.308.051.8.8 0 0 0-.267.15.8.8 0 0 0-.189.234.6.6 0 0 0-.072.302q0 .174.066.31a.7.7 0 0 0 .178.23m-17.067.865h.316v.316h-.316zm17.954-3.122h.316v.316h-.317zm3.322 3.119h-.316v.315h.316zm-20.738.003h.316v.316h-.316zm-1.593-3.122h.316v.316h-.316zm31.455 0h-.316v.316h.316zm-3.043 0h.308v2.756h-.308zm-9.627 0h-.316v.316h.316zM6.277 26.2q.05.157.05.338v1.21H4.575v-.307h1.443v-.892a1 1 0 0 0-.025-.23.5.5 0 0 0-.09-.177.5.5 0 0 0-.378-.172h-.27v-.307h.228q.22 0 .37.067a.8.8 0 0 1 .276.201.7.7 0 0 1 .147.269m41.025-1.21h-.309v2.756h.309zm-13.33 0h.316v.316h-.316zm12.125 0h-.308v2.45H44.73a1.14 1.14 0 0 0 .01-.896 1.08 1.08 0 0 0-.591-.592 1.1 1.1 0 0 0-.445-.086c-.16 0-.298.03-.431.088a1.1 1.1 0 0 0-.581.597 1.13 1.13 0 0 0-.06.674q.026.114.068.217h-.955q.097-.211.097-.454-.001-.24-.086-.443a1.08 1.08 0 0 0-.593-.59 1.1 1.1 0 0 0-.444-.087 1.1 1.1 0 0 0-1.01.684 1.13 1.13 0 0 0-.06.675q.025.114.067.217h-.977v-2.449h-.309v2.45h-.981v-.47q0-.178-.046-.337a.7.7 0 0 0-.147-.271.8.8 0 0 0-.27-.2 1 1 0 0 0-.38-.066h-1.364l.58-1.107h-.336l-.59 1.103a.6.6 0 0 0 .139.312h1.569q.145 0 .252.045.105.045.17.12.066.078.089.178a1 1 0 0 1 .023.222v.47h-2.847v-1.777h-.486q-.29 0-.523.078-.235.08-.4.219a.97.97 0 0 0-.346.747q0 .273.104.469.105.195.277.322.174.128.405.188t.484.061h6.108q.15.162.355.256.206.094.449.094t.46-.093q.213-.092.367-.257H42.9q.15.162.356.256.205.094.448.094t.46-.093q.213-.092.367-.257h1.566V24.99m-12.115 2.45h-.304a1 1 0 0 1-.325-.05.8.8 0 0 1-.266-.145.68.68 0 0 1-.244-.54c0-.115.023-.21.07-.3a.8.8 0 0 1 .19-.235.8.8 0 0 1 .267-.15 1 1 0 0 1 .308-.051h.304zm7.487-.137a.8.8 0 0 1-.431.423.85.85 0 0 1-.635-.004.78.78 0 0 1-.416-.43.86.86 0 0 1 0-.624.8.8 0 0 1 .412-.43.85.85 0 0 1 .642-.004.76.76 0 0 1 .429.425.8.8 0 0 1 .062.324c0 .118-.02.222-.063.321m2.986 0a.8.8 0 0 1-.431.423.85.85 0 0 1-.635-.004.78.78 0 0 1-.416-.43.84.84 0 0 1 .163-.881.78.78 0 0 1 .566-.24q.175 0 .325.062a.76.76 0 0 1 .429.425.8.8 0 0 1 .061.325.8.8 0 0 1-.064.321zm-42.329.445q-.252 0-.484-.062l.001-.001a1.2 1.2 0 0 1-.404-.188.94.94 0 0 1-.278-.322 1 1 0 0 1-.104-.47.96.96 0 0 1 .346-.747q.166-.138.4-.218a1.6 1.6 0 0 1 .523-.078h.486v1.777h1.222v-1.777h.309v2.086zm-.89-1.344a.64.64 0 0 0-.072.302h.001q0 .173.066.31.066.134.178.23.114.093.266.143t.325.05h.305v-1.47H2a1 1 0 0 0-.308.051.8.8 0 0 0-.267.15.8.8 0 0 0-.189.234M23.5 28.113h-.316v.316h.316zm-.855 0h.316v.316h-.316zm3.176.025q.03-.145.03-.325v-.066h3.96v-2.756h-.309v2.45h-1.309l.539-1.288a3 3 0 0 0-.262-.201 2 2 0 0 0-.286-.166 1.7 1.7 0 0 0-.296-.112 1.13 1.13 0 0 0-.598 0 1.8 1.8 0 0 0-.583.275 3 3 0 0 0-.255.203l.542 1.287h-1.147v-1.778h-.309v2.152q0 .13-.012.22a.4.4 0 0 1-.046.147.2.2 0 0 1-.09.081.4.4 0 0 1-.143.026l-.073-.004-.085-.02-.08.296a1 1 0 0 0 .25.035q.165 0 .278-.054a.45.45 0 0 0 .183-.156.7.7 0 0 0 .097-.245zm1.017-1.877q.177-.15.364-.218a1.1 1.1 0 0 1 .803.013q.204.082.346.205l-.48 1.18h-.55l-.481-1.18zm-25.083-1.27h.316v.316h-.316zm1.31 4.777h-.474L1.546 30.87v-1.103h-.387v2.193h.387v-.635l.341-.351.752.986h.467l-.954-1.25zm.393 0h.387v2.195h-.387zm2.518 1.517-1.178-1.517H4.44v2.193h.38v-1.56l1.212 1.56h.323v-2.193h-.38zm2.543-.214h-.563v-.335h.936v.922a1.4 1.4 0 0 1-.917.342c-.688 0-1.14-.49-1.14-1.129v-.006a1.12 1.12 0 0 1 1.134-1.136c.383 0 .62.107.845.298l-.245.292a.86.86 0 0 0-.615-.235c-.406 0-.713.354-.713.774v.007c0 .45.298.783.747.783a.9.9 0 0 0 .53-.166zm1.727-1.303h-.82v2.195h.82c.691 0 1.17-.48 1.17-1.099v-.006c0-.618-.479-1.09-1.17-1.09m.763 1.103c0 .429-.302.74-.763.74h-.433v-1.493h.433c.463 0 .763.318.763.747zm.768-.006c0-.618.477-1.136 1.152-1.136h.002c.675 0 1.147.511 1.147 1.13v.006c0 .617-.478 1.135-1.154 1.135a1.116 1.116 0 0 1-1.147-1.129zm1.152.78c.437 0 .742-.348.742-.774v-.006c0-.427-.311-.781-.748-.781s-.741.348-.741.774v.007c0 .426.31.78.747.78m2.708-.84-.67-1.037h-.412v2.193h.38v-1.567l.69 1.03h.012l.694-1.036v1.573h.386v-2.193h-.41zm2.493.06c0-.618.477-1.136 1.152-1.136h.001c.676 0 1.147.511 1.147 1.13v.006c0 .617-.477 1.135-1.153 1.135a1.116 1.116 0 0 1-1.147-1.129zm1.152.78c.437 0 .741-.348.741-.774v-.006c0-.427-.31-.781-.747-.781s-.741.348-.741.774v.007c0 .426.31.78.747.78m1.626.316h.387v-.892h1.108v-.352h-1.108v-.599h1.25v-.35h-1.637zm3.33-1.617c0 .169.1.244.522.345h-.001c.465.113.706.278.706.642v.006c0 .41-.322.655-.784.655-.337 0-.653-.115-.918-.35l.233-.276c.21.18.421.285.695.285.239 0 .389-.11.389-.276v-.007c0-.157-.087-.241-.496-.335-.467-.113-.732-.25-.732-.655v-.007c0-.375.315-.636.752-.636.32 0 .574.098.797.277l-.207.291q-.295-.224-.597-.226c-.226 0-.358.117-.358.26zm2.413-.592-.967 2.21h.395l.226-.53h1.04l.224.53h.409l-.968-2.21zm-.204 1.339.377-.879.38.879zm2.7.552c.342 0 .553-.207.553-.611V29.77h.386v1.245c0 .655-.373.983-.945.983s-.936-.33-.936-.965v-1.264h.386v1.248c0 .407.213.627.556.627m2.324-1.875h-.82v2.195h.82c.691 0 1.17-.48 1.17-1.099v-.006c0-.618-.479-1.09-1.17-1.09m.763 1.103c0 .429-.302.74-.763.74h-.433v-1.493h.433c.463 0 .763.318.763.747zm.895-1.103h.387v2.195h-.386zm2.697-.016-.968 2.21h.396l.226-.53h1.04l.224.53h.408l-.967-2.21zm-.205 1.339.378-.879.38.879zm3.692-.631v.006c0 .36-.216.576-.524.664l.593.831h-.456l-.54-.765h-.484v.765h-.386v-2.195h.98c.276 0 .493.083.634.22.117.12.183.283.183.474m-1.41-.342v.738h.566c.276 0 .452-.146.452-.368v-.006c0-.235-.17-.364-.456-.364zm2.73-.366-.967 2.21h.396l.226-.53h1.04l.223.53h.409l-.967-2.21zm-.204 1.339.377-.879.38.879zm3.605-.76c0 .264-.151.405-.315.49.257.087.436.235.436.533v.006c0 .393-.322.603-.813.603h-1.017v-2.195h.986c.252 0 .45.068.575.194a.5.5 0 0 1 .148.363zm-.773-.222h-.556v.583h.528c.248 0 .415-.097.415-.298v-.006c0-.172-.14-.279-.387-.279m.085 1.51c.263 0 .424-.102.424-.3v-.006c0-.185-.148-.296-.453-.296h-.612v.603zm1.675-1.851h-.387v2.195h.387zm1.335-.016h.36l.967 2.21h-.408l-.224-.53h-1.04l-.226.53h-.396zm.174.46-.378.879h.758z"
        fill="#fff" />
</svg>