<svg width="23" height="21" viewBox="0 0 23 21" fill="none" xmlns="http://www.w3.org/2000/svg">
    <path
        d="M9.745 3.221c-1.454 3.013-1.61 3.221-2.39 3.377-.467.052-2.026.312-3.532.52-1.507.207-2.806.52-2.962.675-.155.156.624 1.143 2.442 2.857l2.65 2.598-.572 3.585c-.311 1.974-.52 3.689-.363 3.792.104.104 1.662-.571 3.48-1.506l3.274-1.715 3.273 1.715c1.766.935 3.377 1.61 3.48 1.506.156-.104-.051-1.818-.363-3.792L17.59 13.3l2.65-2.65c1.87-1.766 2.598-2.701 2.442-2.857s-1.819-.468-3.74-.78c-1.871-.26-3.482-.519-3.534-.57-.052-.053-.779-1.507-1.61-3.274C12.758 1.091 12.083 0 11.824 0c-.364 0-1.04 1.091-2.079 3.221"
        fill="#A6A6A8" />
</svg>