<svg viewBox="0 0 242 250" fill="none" xmlns="http://www.w3.org/2000/svg">
    <g clip-path="url(#a)">
        <path
            d="M55.699 182.893H0v22.858h55.699zm185.937-.001h-55.698v22.858h55.698zm-107.163.047v22.791h-8.671l-.015-7.692h-10.224l-.059 7.692h-8.575v-22.791h8.575l.007 7.661h10.403l-.015-7.661zm-60.213 0 10.603.007 6.142 10.253v-10.26h8.447v22.828H87.93l-5.223-10.499v10.499H74.26zm93.046 7.657-.007-7.647h-25.193v22.761h25.193v-7.677h-16.783l-.007-7.437zm-148.74-22.947H0v-15.241l18.566-15.242zm37.134-.001H37.136v-60.906L55.7 91.441zm37.25.008H74.36V60.966l18.589-15.24zm18.586-152.415v152.414h18.603l-.015-152.414L121.043 0zm111.547 152.41h18.567v-15.092l-18.567-15.092zm-37.175-.003h18.582v-60.906l-18.582-15.301zm-37.173.004h18.566V60.918L148.735 45.61zM8.897 226.097c1.447 0 2.783-.821 2.783-2.561 0-1.531-1.216-2.532-2.783-2.532-1.568 0-2.814 1.001-2.814 2.532 0 1.74 1.336 2.561 2.814 2.561m3.953 12.245h-1.67c-3.24 0-5.433-1.382-5.433-4.742v-4.966H0v5.615c0 6.072 3.739 9.574 10.283 9.574h8.306v-15.189h-5.746v9.708zm72.818-2.657c0 2.024-1.053 3.152-2.791 3.152-1.74 0-2.769-1.068-2.769-3.039v-7.222h-5.171v6.46c0 2.927-2.321 3.547-3.873 3.547h-1.41v-10.007h-5.15v10.007H50.96v-1.068c0-6.213-2.903-9.028-8.633-9.028h-2.933l4.395-7.483h-6.283l-3.925 7.513c.03 2.225.798 4.047 1.604 5.205h7.798c1.687 0 2.769 1.015 2.769 2.837v2.024H27.029v-17.579h-5.142v22.814H71.05c2.597 0 4.679-.844 6.082-2.36 1.164 1.74 3.238 2.36 5.723 2.36 5.56 0 7.94-2.726 7.94-8.693v-8.64h-5.141v9.2zm14.478 11.892c0-.508.358-.844.888-.844h1.41v-1.829h-1.44c-2.044 0-3.514.926-3.514 3.233v1.852h5.701v-2.166h-3.045v-.254zm2.412-21.092h-5.142v9.805h5.142z" />
        <path
            d="M116.626 238.583h-2.597c-1.851 0-2.903-1.128-3.067-3.293v-14.286h-5.171v14.316c0 2.083-1.299 3.263-3.515 3.263h-8.164l1.052 5.235h6.5c3.343 0 5.753-.844 7.276-2.532.858 1.546 2.768 2.532 5.089 2.532h7.746v-22.814h-5.142v17.579zm18.378-12.741c1.41 0 2.657-.784 2.657-2.39 0-1.463-1.165-2.419-2.657-2.419-1.493 0-2.627.956-2.627 2.419 0 1.606 1.246 2.39 2.627 2.39m6.189.002c1.41 0 2.656-.784 2.656-2.39 0-1.463-1.134-2.419-2.656-2.419s-2.627.956-2.627 2.419c0 1.606 1.246 2.39 2.627 2.39m15.726 19.344c-1.47 0-2.626.926-2.626 2.39 0 1.606 1.246 2.42 2.626 2.42 1.381 0 2.657-.814 2.657-2.42 0-1.464-1.164-2.39-2.657-2.39m6.169 0c-1.493 0-2.627.926-2.627 2.39 0 1.606 1.246 2.42 2.627 2.42s2.656-.814 2.656-2.42c0-1.464-1.134-2.39-2.656-2.39m8.609-19.327c1.38 0 2.657-.784 2.657-2.449 0-1.464-1.165-2.42-2.657-2.42-1.493 0-2.687.956-2.687 2.42 0 1.657 1.277 2.449 2.687 2.449" />
        <path
            d="M189.298 227.419h-5.507v-6.415h-5.149v17.579h-4.426v-10.051h-5.141v10.051h-6.724v-10.051h-5.141v10.051h-13.298v-12.098h-5.171v.934c-5.619.03-9.351 3.315-9.351 8.214v.03c0 4.891 3.485 8.155 8.709 8.155h60.295v-7.057c0-5.907-3.291-9.312-9.096-9.335m-50.557 11.164h-1.105c-1.85 0-3.403-1.038-3.403-2.927v-.03c0-1.941 1.553-2.979 3.403-2.979h1.105zm54.482 0h-9.432v-5.906h5.977c2.127 0 3.455 1.15 3.455 3.151zm34.094-.012h-11.044v-11.164h-5.149c-5.642 0-9.403 3.293-9.403 8.215v.029c0 4.892 3.485 8.155 8.716 8.155h.634c-.194 1.068-1.052 1.352-2.41 1.352-1.716 0-3.485-.142-5.037-.426l.858 4.921c1.44.254 2.791.336 4.202.336 4.455 0 6.939-1.717 7.469-6.19h16.298v-22.814h-5.142v17.579zm-16.246 0h-1.104c-1.851 0-3.403-1.038-3.403-2.927v-.03c0-1.942 1.552-2.98 3.403-2.98h1.104zm30.606-17.574h-5.149v22.814h5.149z" />
    </g>
    <defs>
        <clipPath id="a">
            <path fill="#fff" d="M0 0h241.667v250H0z" />
        </clipPath>
    </defs>
</svg>